<?xml version="1.0" encoding="utf-8"?>
<!-- Generator: Adobe Illustrator 18.0.0, SVG Export Plug-In . SVG Version: 6.00 Build 0)  -->
<svg version="1.1" id="Capa_1" xmlns="http://www.w3.org/2000/svg" xmlns:xlink="http://www.w3.org/1999/xlink" x="0px" y="0px"
	 viewBox="0 0 500 500" enable-background="new 0 0 500 500" xml:space="preserve">
<g>
	<g>
		<polygon fill="#D7C47D" points="250,2.7 225.9,45.8 250,71.3 274.1,45.5 		"/>
		<path fill="#D7C47D" d="M172.2,107.4c0,0,36.1-47.2,43.5-49.1L250,91.6l34.3-33.3c0,0,31.5,24.1,43.5,49.1
			c0,0-33.3,54.6-59.3,57.4L250,128.7l-19.4,36.1C230.6,164.8,184.2,146.3,172.2,107.4z"/>
		<path fill="#D7C47D" d="M157.4,103.7c1.9,3.7,12,44.5,46.3,61.1s46.3,27.8,46.3,27.8s26.9-21.3,50-27.8s39.8-61.1,39.8-61.1
			l20.4,39.8l-8.8,11.6c0,0,1.4,63.4-4.2,92.2c-5.6,28.7,41.7,77.1,41.7,77.1s-82.4,55.3-103.7,167.4h-14.8l-1.9-236.2
			c0,0,24.3,5.9,53.5-25.4c5.3-5.7-2.9-49.5-2.9-49.5s-54.2,21.9-66.2,63.7c-0.6,2-5.3,3.3-6.8-0.9c-17.6-48.6-68.6-63.2-68.6-63.2
			s-9.1,35.1-3.1,49.9c8.4,20.6,39.1,23.8,51.5,24.4v237.1h-13c0,0-37-143.6-101.9-166.7c0,0,40.3-48.2,40.3-73.2
			s-11.2-71.5-4.1-98.2l-8.5-12L157.4,103.7z"/>
	</g>
	<g>
		<linearGradient id="SVGID_1_" gradientUnits="userSpaceOnUse" x1="225.9202" y1="42.5435" x2="274.0798" y2="42.5435">
			<stop  offset="0" style="stop-color:#886A35"/>
			<stop  offset="0.3492" style="stop-color:#9E8044"/>
			<stop  offset="0.7208" style="stop-color:#AF914F"/>
			<stop  offset="1" style="stop-color:#B59753"/>
			<stop  offset="1" style="stop-color:#B89A55"/>
		</linearGradient>
		<polygon fill="url(#SVGID_1_)" points="250,8.3 225.9,51.3 250,76.8 274.1,51.1 		"/>
		<linearGradient id="SVGID_2_" gradientUnits="userSpaceOnUse" x1="172.2038" y1="117.0982" x2="327.7962" y2="117.0982">
			<stop  offset="0" style="stop-color:#886A35"/>
			<stop  offset="0.3492" style="stop-color:#9E8044"/>
			<stop  offset="0.7208" style="stop-color:#AF914F"/>
			<stop  offset="1" style="stop-color:#B59753"/>
			<stop  offset="1" style="stop-color:#B89A55"/>
		</linearGradient>
		<path fill="url(#SVGID_2_)" d="M172.2,112.9c0,0,36.1-47.2,43.5-49.1L250,97.2l34.3-33.3c0,0,31.5,24.1,43.5,49.1
			c0,0-33.3,54.6-59.3,57.4L250,134.2l-19.4,36.1C230.6,170.4,184.2,151.8,172.2,112.9z"/>
		<linearGradient id="SVGID_3_" gradientUnits="userSpaceOnUse" x1="111.0783" y1="303.2533" x2="388.9218" y2="303.2533">
			<stop  offset="0" style="stop-color:#886A35"/>
			<stop  offset="0.3492" style="stop-color:#9E8044"/>
			<stop  offset="0.7208" style="stop-color:#AF914F"/>
			<stop  offset="1" style="stop-color:#B59753"/>
			<stop  offset="1" style="stop-color:#B89A55"/>
		</linearGradient>
		<path fill="url(#SVGID_3_)" d="M157.4,109.2c1.9,3.7,12,44.5,46.3,61.1s46.3,27.8,46.3,27.8s26.9-21.3,50-27.8
			s39.8-61.1,39.8-61.1l20.4,39.8l-8.8,11.6c0,0,1.4,63.4-4.2,92.2c-5.6,28.7,41.7,77.1,41.7,77.1s-82.4,55.3-103.7,167.4h-14.8
			l-1.9-236.2c0,0,24.3,5.9,53.5-25.4c5.3-5.7-2.9-49.5-2.9-49.5s-54.2,21.9-66.2,63.7c-0.6,2-5.3,3.3-6.8-0.9
			c-17.6-48.6-68.6-63.2-68.6-63.2s-9.1,35.1-3.1,49.9c8.4,20.6,39.1,23.8,51.5,24.4v237.1h-13c0,0-37-143.6-101.9-166.7
			c0,0,40.3-48.2,40.3-73.2c0-25-11.2-71.5-4.1-98.2l-8.5-12L157.4,109.2z"/>
	</g>
</g>
</svg>
