<?xml version="1.0" encoding="utf-8"?>
<!-- Generator: Adobe Illustrator 18.0.0, SVG Export Plug-In . SVG Version: 6.00 Build 0)  -->
<svg version="1.1" id="Capa_1" xmlns="http://www.w3.org/2000/svg" xmlns:xlink="http://www.w3.org/1999/xlink" x="0px" y="0px"
	 viewBox="0 0 500 500" enable-background="new 0 0 500 500" xml:space="preserve">
<g>
	<g>
		<path fill="#D7C47D" d="M497.8,349.8c-2.3-27.1-5-54.2-7.4-81.4c-2-23.4-3.9-46.9-5.6-70.3c-1.6-20.9-9.9-39.1-27-52.2
			c-8.6-6.6-13.4-13.9-15.2-23.7c-2.3-12.1-10.8-18.2-22.3-21.1c-15.8-4-31.2-1.9-45.9,4.5c-7.5,3.3-12.2,9-13.4,17
			c-0.7,4.5-1.8,8.9-2.6,13.3c-1.1,5.7-5,8.9-11,8.9c-64.5,0-129,0-193.5,0c-7.7,0-11.2-2.9-12.5-10.2c-0.7-4-1.5-7.9-2.2-11.9
			c-1.3-7.9-5.9-13.7-13.4-17c-15.2-6.6-31.1-8.7-47.3-4.2c-10.6,2.9-18.6,9-20.8,20.2c-0.8,4.1-2.1,8.2-3.7,12
			c-1,2.4-2.6,4.9-4.7,6.3c-20.7,14.7-32.1,34.1-33.9,58.9c-2.2,29.9-4.8,59.7-7.4,89.6c-1.8,20.7-3.7,41.4-5.6,62.1
			c-2.8,30.3,34.9,51.3,58,44.7c18.2-5.2,31.9-16.1,42.1-30.8c9.6-13.8,18-28.3,27-42.5c0.9-1.4,1.8-2.9,2.9-4.5
			c11.4,9.3,24,14.5,38.4,14.5c25.9,0,44.7-11.3,56.2-33.6c0.8-1.6,2.8-3.6,4.2-3.7c13.5-0.3,27-0.2,40.3-0.2
			c14.3,36,61.8,50.8,96.6,23.2c1,1.5,1.9,3,2.8,4.5c8.5,13.5,16.8,27.2,25.5,40.6c6.2,9.6,14.5,17.4,24.2,23.7
			c21,13.8,41.2,13,61-2.2C493.2,375.6,499,364,497.8,349.8z M98.9,257.1c-32,0-58.1-25.8-58.1-57.5c0-32.5,25.9-58.7,58-58.7
			c32.2,0,58.1,26.1,58.1,58.6C156.8,231.3,130.9,257.1,98.9,257.1z M176.2,310.8c-19.3,0.2-35.5-15.5-35.6-34.5
			c-0.1-19.3,15.6-34.9,35-35c19.7-0.1,35.3,15.4,35.3,35.1C210.9,295,195.2,310.5,176.2,310.8z M323.9,310.8
			c-19.2-0.2-34.8-15.8-34.7-34.8c0-19.5,15.5-34.7,35.1-34.7c19.4,0,34.8,15.2,35,34.4C359.3,295.1,343.4,311,323.9,310.8z
			 M401.4,257.1c-32,0-57.9-25.8-57.9-57.6c0-32.5,25.8-58.5,58.1-58.5c31.9,0,58,26.2,58,58.2C459.4,231.4,433.6,257.1,401.4,257.1
			z"/>
		<path fill="#D7C47D" d="M80.2,186.9c-0.8-0.7-1.9-1.3-2.9-1.4c-5.6-0.1-11.2-0.1-17.1-0.1c0,9.1,0,17.7,0,27
			c5.8,0,11.3,0.1,16.7,0c1,0,2.3-0.4,3-1c4.3-3.8,8.4-7.8,13.2-12.2C88.3,194.6,84.3,190.7,80.2,186.9z"/>
		<path fill="#D7C47D" d="M117.7,185.6c-1,0-2.1,0.7-2.9,1.4c-4.1,3.8-8.1,7.7-13,12.3c4.7,4.4,8.9,8.4,13.2,12.2c0.7,0.7,2,1,3,1
			c5.4,0.1,10.9,0,16.7,0c0-9.3,0-17.9,0-27C128.8,185.5,123.2,185.4,117.7,185.6z"/>
		<path fill="#D7C47D" d="M85.1,182.4c3.8,4.3,7.8,8.4,12.2,13.2c4.6-4.8,8.5-8.8,12.3-13c0.7-0.8,1.3-1.9,1.4-2.9
			c0.1-5.6,0.1-11.2,0.1-17.1c-9.1,0-17.7,0-27,0c0,5.8-0.1,11.3,0,16.7C84.1,180.4,84.5,181.7,85.1,182.4z"/>
		<path fill="#D7C47D" d="M109.7,215.6c-3.8-4.1-7.7-8.1-12.3-13c-4.4,4.7-8.4,8.9-12.2,13.2c-0.7,0.7-1,2-1,3
			c-0.1,5.4,0,10.9,0,16.7c9.3,0,17.9,0,27,0c0-5.9,0.1-11.5-0.1-17.1C111,217.5,110.4,216.3,109.7,215.6z"/>
		<path fill="#D7C47D" d="M401.6,215.3c-8.7,0-15.7,7-15.6,15.7c0.1,8.4,7.1,15.3,15.6,15.2c8.4-0.1,15.3-7,15.3-15.4
			C416.9,222.3,410,215.4,401.6,215.3z"/>
		<path fill="#D7C47D" d="M370.7,183.6c-8.5-0.1-15.4,6.7-15.6,15.2c-0.1,8.5,6.7,15.5,15.1,15.7c8.6,0.2,15.8-6.9,15.8-15.5
			C386,190.6,379.1,183.6,370.7,183.6z"/>
		<path fill="#D7C47D" d="M417,198.5c-0.2,8.6,6.9,15.8,15.5,15.8c8.4,0,15.4-7,15.4-15.4c0-8.4-6.9-15.4-15.3-15.5
			C424.1,183.3,417.1,190,417,198.5z"/>
	</g>
	<g>
		<linearGradient id="SVGID_1_" gradientUnits="userSpaceOnUse" x1="250" y1="400.9464" x2="250" y2="103.4513">
			<stop  offset="0" style="stop-color:#886A35"/>
			<stop  offset="0.3492" style="stop-color:#9E8044"/>
			<stop  offset="0.7208" style="stop-color:#AF914F"/>
			<stop  offset="1" style="stop-color:#B59753"/>
			<stop  offset="1" style="stop-color:#B89A55"/>
		</linearGradient>
		<path fill="url(#SVGID_1_)" d="M497.8,354.2c-2.3-27.1-5-54.2-7.4-81.4c-2-23.4-3.9-46.9-5.6-70.3c-1.6-20.9-9.9-39.1-27-52.2
			c-8.6-6.6-13.4-13.9-15.2-23.7c-2.3-12.1-10.8-18.2-22.3-21.1c-15.8-4-31.2-1.9-45.9,4.5c-7.5,3.3-12.2,9-13.4,17
			c-0.7,4.5-1.8,8.9-2.6,13.3c-1.1,5.7-5,8.9-11,8.9c-64.5,0-129,0-193.5,0c-7.7,0-11.2-2.9-12.5-10.2c-0.7-4-1.5-7.9-2.2-11.9
			c-1.3-7.9-5.9-13.7-13.4-17c-15.2-6.6-31.1-8.7-47.3-4.2c-10.6,2.9-18.6,9-20.8,20.2c-0.8,4.1-2.1,8.2-3.7,12
			c-1,2.4-2.6,4.9-4.7,6.3c-20.7,14.7-32.1,34.1-33.9,58.9c-2.2,29.9-4.8,59.7-7.4,89.6c-1.8,20.7-3.7,41.4-5.6,62.1
			c-2.8,30.3,34.9,51.3,58,44.7c18.2-5.2,31.9-16.1,42.1-30.8c9.6-13.8,18-28.3,27-42.5c0.9-1.4,1.8-2.9,2.9-4.5
			c11.4,9.3,24,14.5,38.4,14.5c25.9,0,44.7-11.3,56.2-33.6c0.8-1.6,2.8-3.6,4.2-3.7c13.5-0.3,27-0.2,40.3-0.2
			c14.3,36,61.8,50.8,96.6,23.2c1,1.5,1.9,3,2.8,4.5c8.5,13.5,16.8,27.2,25.5,40.6c6.2,9.6,14.5,17.4,24.2,23.7
			c21,13.8,41.2,13,61-2.2C493.2,380,499,368.4,497.8,354.2z M98.9,261.5c-32,0-58.1-25.8-58.1-57.5c0-32.5,25.9-58.7,58-58.7
			c32.2,0,58.1,26.1,58.1,58.6C156.8,235.7,130.9,261.5,98.9,261.5z M176.2,315.2c-19.3,0.2-35.5-15.5-35.6-34.5
			c-0.1-19.3,15.6-34.9,35-35c19.7-0.1,35.3,15.4,35.3,35.1C210.9,299.4,195.2,314.9,176.2,315.2z M323.9,315.2
			c-19.2-0.2-34.8-15.8-34.7-34.8c0-19.5,15.5-34.7,35.1-34.7c19.4,0,34.8,15.2,35,34.4C359.3,299.5,343.4,315.4,323.9,315.2z
			 M401.4,261.5c-32,0-57.9-25.8-57.9-57.6c0-32.5,25.8-58.5,58.1-58.5c31.9,0,58,26.2,58,58.2C459.4,235.8,433.6,261.5,401.4,261.5
			z"/>
		<linearGradient id="SVGID_2_" gradientUnits="userSpaceOnUse" x1="76.7194" y1="216.9422" x2="76.7194" y2="189.8832">
			<stop  offset="0" style="stop-color:#886A35"/>
			<stop  offset="0.3492" style="stop-color:#9E8044"/>
			<stop  offset="0.7208" style="stop-color:#AF914F"/>
			<stop  offset="1" style="stop-color:#B59753"/>
			<stop  offset="1" style="stop-color:#B89A55"/>
		</linearGradient>
		<path fill="url(#SVGID_2_)" d="M80.2,191.3c-0.8-0.7-1.9-1.3-2.9-1.4c-5.6-0.1-11.2-0.1-17.1-0.1c0,9.1,0,17.7,0,27
			c5.8,0,11.3,0.1,16.7,0c1,0,2.3-0.4,3-1c4.3-3.8,8.4-7.8,13.2-12.2C88.3,199,84.3,195.1,80.2,191.3z"/>
		<linearGradient id="SVGID_3_" gradientUnits="userSpaceOnUse" x1="118.252" y1="216.9422" x2="118.252" y2="189.8832">
			<stop  offset="0" style="stop-color:#886A35"/>
			<stop  offset="0.3492" style="stop-color:#9E8044"/>
			<stop  offset="0.7208" style="stop-color:#AF914F"/>
			<stop  offset="1" style="stop-color:#B59753"/>
			<stop  offset="1" style="stop-color:#B89A55"/>
		</linearGradient>
		<path fill="url(#SVGID_3_)" d="M117.7,190c-1,0-2.1,0.7-2.9,1.4c-4.1,3.8-8.1,7.7-13,12.3c4.7,4.4,8.9,8.4,13.2,12.2
			c0.7,0.7,2,1,3,1c5.4,0.1,10.9,0,16.7,0c0-9.3,0-17.9,0-27C128.8,189.9,123.2,189.8,117.7,190z"/>
		<linearGradient id="SVGID_4_" gradientUnits="userSpaceOnUse" x1="97.5672" y1="199.9476" x2="97.5672" y2="167.0379">
			<stop  offset="0" style="stop-color:#886A35"/>
			<stop  offset="0.3492" style="stop-color:#9E8044"/>
			<stop  offset="0.7208" style="stop-color:#AF914F"/>
			<stop  offset="1" style="stop-color:#B59753"/>
			<stop  offset="1" style="stop-color:#B89A55"/>
		</linearGradient>
		<path fill="url(#SVGID_4_)" d="M85.1,186.8c3.8,4.3,7.8,8.4,12.2,13.2c4.6-4.8,8.5-8.8,12.3-13c0.7-0.8,1.3-1.9,1.4-2.9
			c0.1-5.6,0.1-11.2,0.1-17.1c-9.1,0-17.7,0-27,0c0,5.8-0.1,11.3,0,16.7C84.1,184.8,84.5,186,85.1,186.8z"/>
		<linearGradient id="SVGID_5_" gradientUnits="userSpaceOnUse" x1="97.5672" y1="239.9084" x2="97.5672" y2="206.9987">
			<stop  offset="0" style="stop-color:#886A35"/>
			<stop  offset="0.3492" style="stop-color:#9E8044"/>
			<stop  offset="0.7208" style="stop-color:#AF914F"/>
			<stop  offset="1" style="stop-color:#B59753"/>
			<stop  offset="1" style="stop-color:#B89A55"/>
		</linearGradient>
		<path fill="url(#SVGID_5_)" d="M109.7,220c-3.8-4.1-7.7-8.1-12.3-13c-4.4,4.7-8.4,8.9-12.2,13.2c-0.7,0.7-1,2-1,3
			c-0.1,5.4,0,10.9,0,16.7c9.3,0,17.9,0,27,0c0-5.9,0.1-11.5-0.1-17.1C111,221.9,110.4,220.7,109.7,220z"/>
		<linearGradient id="SVGID_6_" gradientUnits="userSpaceOnUse" x1="401.4738" y1="250.6156" x2="401.4738" y2="219.7196">
			<stop  offset="0" style="stop-color:#886A35"/>
			<stop  offset="0.3492" style="stop-color:#9E8044"/>
			<stop  offset="0.7208" style="stop-color:#AF914F"/>
			<stop  offset="1" style="stop-color:#B59753"/>
			<stop  offset="1" style="stop-color:#B89A55"/>
		</linearGradient>
		<path fill="url(#SVGID_6_)" d="M401.6,219.7c-8.7,0-15.7,7-15.6,15.7c0.1,8.4,7.1,15.3,15.6,15.2c8.4-0.1,15.3-7,15.3-15.4
			C416.9,226.7,410,219.8,401.6,219.7z"/>
		<linearGradient id="SVGID_7_" gradientUnits="userSpaceOnUse" x1="370.5749" y1="218.8609" x2="370.5749" y2="187.9667">
			<stop  offset="0" style="stop-color:#886A35"/>
			<stop  offset="0.3492" style="stop-color:#9E8044"/>
			<stop  offset="0.7208" style="stop-color:#AF914F"/>
			<stop  offset="1" style="stop-color:#B59753"/>
			<stop  offset="1" style="stop-color:#B89A55"/>
		</linearGradient>
		<path fill="url(#SVGID_7_)" d="M370.7,188c-8.5-0.1-15.4,6.7-15.6,15.2c-0.1,8.5,6.7,15.5,15.1,15.7c8.6,0.2,15.8-6.9,15.8-15.5
			C386,195,379.1,188,370.7,188z"/>
		<linearGradient id="SVGID_8_" gradientUnits="userSpaceOnUse" x1="432.4174" y1="218.6594" x2="432.4174" y2="187.7712">
			<stop  offset="0" style="stop-color:#886A35"/>
			<stop  offset="0.3492" style="stop-color:#9E8044"/>
			<stop  offset="0.7208" style="stop-color:#AF914F"/>
			<stop  offset="1" style="stop-color:#B59753"/>
			<stop  offset="1" style="stop-color:#B89A55"/>
		</linearGradient>
		<path fill="url(#SVGID_8_)" d="M417,202.9c-0.2,8.6,6.9,15.8,15.5,15.8c8.4,0,15.4-7,15.4-15.4c0-8.4-6.9-15.4-15.3-15.5
			C424.1,187.7,417.1,194.4,417,202.9z"/>
	</g>
</g>
</svg>
