<?xml version="1.0" encoding="utf-8"?>
<!-- Generator: Adobe Illustrator 22.0.1, SVG Export Plug-In . SVG Version: 6.00 Build 0)  -->
<svg version="1.1" id="Capa_1" xmlns="http://www.w3.org/2000/svg" xmlns:xlink="http://www.w3.org/1999/xlink" x="0px" y="0px"
	 viewBox="0 0 40 33.3" style="enable-background:new 0 0 40 33.3;" xml:space="preserve">
<style type="text/css">
	.st0{fill:#C6AD64;}
</style>
<path class="st0" d="M31,33.3H9c-2.2,0-4-1.8-4-4V24c0-2.2,1.8-4,4-4h22c2.2,0,4,1.8,4,4v5.3C35,31.5,33.2,33.3,31,33.3z"/>
<path class="st0" d="M34,30.3H6c-2.2,0-4-1.8-4-4V10c0-2.2,1.8-4,4-4h28c2.2,0,4,1.8,4,4v16.3C38,28.5,36.2,30.3,34,30.3z"/>
<path class="st0" d="M36,27H4c-2.2,0-4-1.8-4-4V4c0-2.2,1.8-4,4-4h32c2.2,0,4,1.8,4,4v19C40,25.2,38.2,27,36,27z"/>
</svg>
